<svg version="1.2" baseProfile="tiny-ps" xmlns="http://www.w3.org/2000/svg" viewBox="0 0 270 18" width="270" height="18">
	<title>logo</title>
	<style>
		tspan { white-space:pre }
		.shp0 { fill: #000000 } 
	</style>
	<g id="logo">
		<path id="Shape 1" fill-rule="evenodd" class="shp0" d="M0 0.27C0 0.27 30.46 0.27 31.54 0.27C32.62 0.27 34.79 0.35 34.79 2.91C34.79 2.91 34.79 9.6 34.79 10.84C34.79 12.07 33.98 13.83 32.17 13.83L3.52 13.83L3.52 17.97L0 17.97L0 0.27ZM3.52 10.13C3.52 10.13 28.3 10.13 29.65 10.13C30.64 10.13 31.09 9.6 31.09 8.37C31.09 8.37 31.09 5.55 31.09 4.85C31.09 4.14 30.64 3.53 29.38 3.53L3.52 3.53L3.52 10.13ZM73.98 16.05C73.98 17 73.22 17.76 72.29 17.76L41.35 17.76C40.42 17.76 39.67 17 39.67 16.05L39.67 1.93C39.67 0.98 40.42 0.21 41.35 0.21L72.29 0.21C73.22 0.21 73.98 0.98 73.98 1.93L73.98 16.05ZM70.54 4.45C70.54 3.85 69.94 3.36 69.2 3.36L44.45 3.36C43.7 3.36 43.1 3.85 43.1 4.45L43.1 13.4C43.1 14 43.7 14.49 44.45 14.49L69.2 14.49C69.94 14.49 70.54 14 70.54 13.4L70.54 4.45ZM78.76 0.27L110.76 0.27C112.56 0.27 113.46 1.5 113.46 3.61C113.46 5.73 113.46 11.01 113.46 11.01C113.46 13.13 112.11 13.74 111.66 13.83L113.82 17.79L109.68 17.79L107.69 13.74L82.28 13.74L82.28 17.97L78.76 17.97L78.76 0.27ZM82.37 10.13C82.37 10.13 107.24 10.13 108.41 10.13C109.58 10.13 110.03 9.6 110.03 8.54C110.03 8.54 110.03 5.9 110.03 5.02C110.03 4.14 109.49 3.61 108.41 3.61L82.37 3.61L82.37 10.13ZM152.3 0.09L152.3 3.61L124.63 3.61C123.46 3.61 123.28 4.41 123.28 4.93C123.28 5.46 123.28 6.08 123.28 6.08C123.28 6.08 123.19 7.31 124.45 7.31C125.71 7.31 149.05 7.31 149.6 7.31C151.94 7.31 152.48 9.16 152.48 10.13C152.48 11.1 152.48 14.89 152.48 14.89C152.48 17.18 150.77 17.88 149.5 17.88C148.24 17.88 119.86 17.88 119.86 17.88L119.86 14.45L147.44 14.45C148.69 14.45 148.97 13.92 148.97 13.21C148.97 12.51 148.97 11.72 148.97 11.72C148.97 10.64 147.16 10.84 146.44 10.84C145.72 10.84 122.47 10.84 122.47 10.84C120.4 10.84 119.86 9.34 119.86 8.11C119.86 6.87 119.86 2.56 119.86 2.56C119.86 0.97 121.39 0.18 122.92 0.18C124.45 0.18 152.3 0.09 152.3 0.09ZM191.41 0.18L191.41 3.44L163.93 3.44C162.66 3.44 162.4 4.32 162.4 5.11C162.4 5.9 162.4 12.86 162.4 12.86C162.4 14.1 162.75 14.45 163.65 14.45C164.56 14.45 191.32 14.45 191.32 14.45L191.32 17.79L161.67 17.79C159.15 17.79 158.88 16.12 158.88 14.62C158.88 13.13 158.88 2.47 158.88 2.47C158.88 0.09 161.04 0.09 161.76 0.09C162.48 0.09 191.41 0.18 191.41 0.18ZM229.83 0L229.83 18L226.32 18L226.32 10.75L200.33 10.75L200.33 18L196.82 18L196.82 0L200.33 0L200.33 7.31L226.32 7.31L226.32 0L229.83 0ZM238.81 3.53L238.81 7.14L269.99 7.14L269.99 10.57L238.81 10.57L238.81 14.45L269.99 14.45L269.99 17.88L235.3 17.88L235.3 0.09L269.99 0.09L269.99 3.53L238.81 3.53Z" />
	</g>
</svg>